<?xml version="1.0" standalone="no"?>
<!DOCTYPE svg PUBLIC "-//W3C//DTD SVG 20010904//EN"
 "http://www.w3.org/TR/2001/REC-SVG-20010904/DTD/svg10.dtd">
<svg version="1.0" xmlns="http://www.w3.org/2000/svg"
 width="319.000000pt" height="158.000000pt" viewBox="0 0 319.000000 158.000000"
 preserveAspectRatio="xMidYMid meet">
<metadata>
Created by potrace 1.16, written by Peter Selinger 2001-2019
</metadata>
<g transform="translate(0.000000,158.000000) scale(0.100000,-0.100000)"
fill="#000000" stroke="none">
<path d="M2050 1354 l0 -164 -995 0 -995 0 0 -400 0 -400 995 0 995 0 0 -164
0 -164 533 360 c292 197 532 363 532 368 0 5 -240 171 -532 369 l-533 359 0
-164z m852 -448 c92 -61 167 -113 167 -116 0 -3 -221 -154 -492 -336 l-492
-331 -3 148 -3 149 -994 0 -995 0 0 370 0 370 995 0 995 0 0 150 0 151 328
-222 c180 -122 402 -271 494 -333z"/>
</g>
</svg>
