<?xml version="1.0" standalone="no"?>
<!DOCTYPE svg PUBLIC "-//W3C//DTD SVG 20010904//EN"
 "http://www.w3.org/TR/2001/REC-SVG-20010904/DTD/svg10.dtd">
<svg version="1.0" xmlns="http://www.w3.org/2000/svg"
 width="474.000000pt" height="395.000000pt" viewBox="0 0 474.000000 395.000000"
 preserveAspectRatio="xMidYMid meet">
<metadata>
Created by potrace 1.16, written by Peter Selinger 2001-2019
</metadata>
<g transform="translate(0.000000,395.000000) scale(0.100000,-0.100000)"
fill="#000000" stroke="none">
<path d="M1708 3942 c-1 -5 -55 -35 -118 -68 -138 -70 -348 -208 -485 -317
-131 -105 -382 -356 -481 -482 -229 -290 -410 -632 -508 -960 -41 -137 -83
-336 -93 -437 -3 -37 -10 -68 -14 -68 -5 0 -9 -115 -9 -256 0 -141 4 -253 9
-250 4 3 11 -19 15 -48 9 -76 50 -231 87 -323 109 -276 315 -510 554 -630 64
-33 214 -83 246 -83 10 0 19 -4 19 -10 0 -13 323 -14 348 -1 9 5 55 19 102 31
433 112 714 531 660 985 -53 443 -356 739 -797 780 -133 13 -306 -21 -411 -80
l-45 -25 6 102 c25 421 322 934 746 1289 105 88 306 226 416 285 39 21 72 39
74 40 2 2 -60 118 -138 258 -78 140 -141 260 -141 266 0 12 -37 14 -42 2z"/>
<path d="M4398 3941 c-1 -5 -39 -27 -83 -49 -776 -389 -1388 -1155 -1568
-1962 -58 -261 -81 -572 -58 -780 45 -399 223 -734 507 -950 86 -65 245 -142
344 -166 41 -11 77 -22 78 -26 5 -10 349 -10 354 0 2 4 36 15 76 25 269 63
481 235 601 488 23 46 49 116 58 154 10 39 21 72 26 73 4 2 7 79 7 172 0 93
-3 170 -7 172 -5 2 -16 34 -25 71 -41 161 -114 287 -233 402 -166 162 -356
237 -605 238 -145 1 -230 -17 -329 -69 l-64 -33 7 92 c39 563 491 1196 1105
1548 94 53 129 78 125 89 -3 8 -62 119 -131 245 -70 127 -132 240 -138 252
-10 23 -40 31 -47 14z"/>
</g>
</svg>
